Coordinates
version=1
nRows=7
nColumns=40
inDegrees=yes

Units are S.I. units (second, meters, Newtons, ...)
Angles are in degrees.

endheader
time	pelvis_tilt	pelvis_list	pelvis_rotation	pelvis_tx	pelvis_ty	pelvis_tz	hip_flexion_r	hip_adduction_r	hip_rotation_r	knee_angle_r	knee_angle_r_beta	ankle_angle_r	subtalar_angle_r	mtp_angle_r	hip_flexion_l	hip_adduction_l	hip_rotation_l	knee_angle_l	knee_angle_l_beta	ankle_angle_l	subtalar_angle_l	mtp_angle_l	lumbar_extension	lumbar_bending	lumbar_rotation	arm_flex_r	arm_add_r	arm_rot_r	elbow_flex_r	pro_sup_r	wrist_flex_r	wrist_dev_r	arm_flex_l	arm_add_l	arm_rot_l	elbow_flex_l	pro_sup_l	wrist_flex_l	wrist_dev_l
      1.82000000	     -0.35140835	      0.08300078	      9.76838667	      0.53411407	      0.96116772	     -1.43736798	      1.88966421	     -1.04212897	    -21.08677880	    -15.49621462	     -0.27045997	      6.10114435	     -2.86284005	     -8.45165008	     19.63391506	      7.95749214	     15.01035317	    -40.23240548	     -0.70218794	      5.21298243	     14.58313743	      7.83586702	     -4.12433538	     -1.69204439	     -0.28682305	      1.57118972	    -11.49328801	    -19.01820507	     20.13954039	     89.95437384	      0.00000000	      0.00000000	     -5.04168883	     12.83945177	      6.29799224	     18.11032990	     89.95437384	      0.00000000	      0.00000000
      1.83000000	     -0.46410190	      0.73199611	      9.07227857	      0.54281894	      0.96085820	     -1.43734372	      1.33458879	     -1.66801638	    -20.24163759	    -15.41055540	     -0.26896493	      6.62878997	     -2.82248933	     -8.55822500	     19.60250742	      7.19663032	     15.86719597	    -36.96365217	     -0.64513743	      4.14018067	     14.05001465	      8.09330803	     -4.12169680	     -2.51113950	      0.59224048	      2.07307830	    -11.77110271	    -18.11061720	     20.29479000	     89.95437384	      0.00000000	      0.00000000	     -5.42841790	     12.87401995	      7.76796178	     17.53992794	     89.95437384	      0.00000000	      0.00000000
      1.84000000	     -0.42063838	      0.92636091	      8.79055794	      0.55159343	      0.96030786	     -1.43779859	      0.56311933	     -1.79960954	    -20.16156056	    -15.20232466	     -0.26533062	      7.01663414	     -2.60920999	     -8.76974301	     19.71256368	      6.91229204	     16.41258268	    -34.04883971	     -0.59426436	      3.62729235	     13.86585632	      8.28442204	     -4.21845082	     -2.79189240	      0.95273410	      2.63533305	    -12.06727149	    -17.20076954	     20.52217034	     89.95437384	      0.00000000	      0.00000000	     -5.97888605	     12.88088522	      9.34963764	     17.20038538	     89.95437384	      0.00000000	      0.00000000
      1.85000000	     -0.46506456	      1.04765914	      8.52926895	      0.56051169	      0.95945465	     -1.43856314	     -0.05745170	     -1.96937156	    -20.41038469	    -15.11636226	     -0.26383029	      7.43850972	     -1.87482878	     -9.46207357	     19.91474303	      6.68708711	     16.84967345	    -31.20010761	     -0.54454460	      3.23040646	     13.46766166	      8.36748945	     -4.17412083	     -2.97415070	      1.27354417	      3.17700634	    -12.37842290	    -16.42852153	     20.71797361	     89.95437384	      0.00000000	      0.00000000	     -6.47701386	     12.79902594	     11.29178561	     16.67051978	     89.95437384	      0.00000000	      0.00000000
      1.86000000	     -0.77120530	      0.68087624	      8.41840897	      0.56897859	      0.95780886	     -1.43922283	     -0.30761297	     -1.56160052	    -20.49543545	    -14.98397380	     -0.26151968	      7.74677543	     -1.86332397	     -9.54010140	     20.73601246	      6.95863220	     16.98741249	    -28.75414854	     -0.50185457	      3.08148554	     13.01353433	      8.43634549	     -3.77132482	     -2.67185745	      1.71128970	      3.61272276	    -12.71260956	    -16.18847202	     20.91887222	     89.95437384	      0.00000000	      0.00000000	     -6.99986519	     12.89553268	     11.50895812	     16.40593040	     89.95437384	      0.00000000	      0.00000000
      1.87000000	     -0.52160359	      1.00246773	      8.08728472	      0.57798005	      0.95731121	     -1.44013796	     -1.38740697	     -1.82735132	    -20.32073642	    -14.66337557	     -0.25592418	      8.12158463	     -1.75166953	     -9.88545560	     20.37705002	      6.59937517	     17.71720864	    -25.62807281	     -0.44729425	      2.35312560	     12.15392974	      8.55408174	     -4.11322846	     -3.03406513	      2.06077964	      4.16268203	    -13.00943880	    -15.29405617	     21.20154734	     89.95437384	      0.00000000	      0.00000000	     -7.40253250	     12.87656104	     13.18762622	     15.88344925	     89.95437384	      0.00000000	      0.00000000
      1.88000000	     -0.48711875	      0.94083086	      7.91838197	      0.58671297	      0.95616899	     -1.44133748	     -2.14929714	     -1.77014901	    -20.49538653	    -14.40651492	     -0.25144112	      8.45499516	     -1.23054728	    -10.37673779	     20.56474107	      6.62117650	     18.08938539	    -23.05692849	     -0.40241932	      2.00445906	     10.88119535	      8.37758628	     -4.16394523	     -2.99413605	      2.25902573	      4.77806806	    -13.35448785	    -14.55192543	     21.35910758	     89.95437384	      0.00000000	      0.00000000	     -7.85422533	     12.79205734	     14.84892130	     15.45729198	     89.95437384	      0.00000000	      0.00000000
